<svg viewBox="0 0 265 43" xmlns="http://www.w3.org/2000/svg" data-logo="logo">
        <g transform="translate(0, 1.5) rotate(0)" id="logogram" style="opacity: 1;"><path fill="#15E3FF" d="M13.0964 20.3536L17.6262 22.4473L17.046 27.6527L8.94876 36.8282C4.2486 33.8023 0.898178 28.8615 0 23.108L13.0964 20.3536Z"></path><path fill="#348DFC" d="M25.183 25.94L31.2414 36.3789C27.992 38.6605 24.0331 40 19.7612 40C18.3744 40 17.0206 39.8587 15.7133 39.59L17.046 27.6527L20.4765 23.7656L25.183 25.94Z"></path><path fill="#FD4873" d="M39.1022 14.881C39.5332 16.5143 39.763 18.2294 39.763 19.9982C39.763 24.1145 38.5192 27.9403 36.3874 31.1207L25.184 25.9405L22.5551 21.4123L25.8574 17.6692L39.1022 14.881Z"></path><path fill="#FFC700" d="M17.046 27.6524L17.0458 27.6527L17.1686 26.552L17.046 27.6524Z"></path><path fill="#FFC700" d="M20.132 0C26.1505 0.109415 31.5194 2.877 35.1148 7.17842L25.8561 17.6694L20.9792 18.6959L18.519 14.4574L20.132 0Z"></path><path fill="#00E7B9" d="M18.519 14.4574L17.9745 19.3269L13.0991 20.353L0.514709 14.5347C2.09964 8.94044 6.05794 4.3436 11.2327 1.9007L18.519 14.4574Z"></path></g>
        <g transform="translate(46, 1)" id="logotype" style="opacity: 1;"><path d="M13.52 34L8.31 34L8.31 8.54L18.24 8.54Q21.14 8.54 23.18 9.64Q25.21 10.74 26.28 12.68Q27.35 14.62 27.35 17.13L27.35 17.13Q27.35 19.66 26.26 21.58Q25.17 23.51 23.12 24.59Q21.06 25.68 18.12 25.68L18.12 25.68L11.73 25.68L11.73 21.47L17.28 21.47Q18.89 21.47 19.92 20.92Q20.95 20.36 21.46 19.39Q21.96 18.41 21.96 17.13L21.96 17.13Q21.96 15.85 21.46 14.88Q20.95 13.90 19.91 13.37Q18.87 12.84 17.26 12.84L17.26 12.84L13.52 12.84L13.52 34ZM33.72 34L28.59 34L28.59 14.89L33.55 14.89L33.55 18.23L33.75 18.23Q34.28 16.45 35.52 15.54Q36.76 14.64 38.37 14.64L38.37 14.64Q38.76 14.64 39.21 14.68Q39.66 14.72 40.02 14.81L40.02 14.81L40.02 19.39Q39.68 19.27 39.03 19.20Q38.38 19.13 37.80 19.13L37.80 19.13Q36.64 19.13 35.70 19.64Q34.76 20.14 34.24 21.04Q33.72 21.93 33.72 23.13L33.72 23.13L33.72 34ZM49.11 34.38L49.11 34.38Q46.24 34.38 44.14 33.14Q42.04 31.90 40.90 29.68Q39.77 27.47 39.77 24.53L39.77 24.53Q39.77 21.56 40.90 19.35Q42.04 17.13 44.14 15.89Q46.24 14.65 49.11 14.65L49.11 14.65Q52.00 14.65 54.10 15.89Q56.19 17.13 57.33 19.35Q58.46 21.56 58.46 24.53L58.46 24.53Q58.46 27.47 57.33 29.68Q56.19 31.90 54.10 33.14Q52.00 34.38 49.11 34.38ZM49.11 30.34L49.11 30.34Q50.48 30.34 51.40 29.58Q52.33 28.82 52.79 27.50Q53.25 26.17 53.25 24.52L53.25 24.52Q53.25 22.82 52.79 21.51Q52.33 20.19 51.40 19.44Q50.48 18.69 49.11 18.69L49.11 18.69Q47.75 18.69 46.83 19.44Q45.92 20.19 45.46 21.51Q44.99 22.82 44.99 24.52L44.99 24.52Q44.99 26.17 45.46 27.50Q45.92 28.82 46.83 29.58Q47.75 30.34 49.11 30.34ZM59.74 34.91L59.74 14.89L64.89 14.89L64.89 34.97Q64.89 37.16 64.03 38.52Q63.18 39.88 61.58 40.51Q59.98 41.14 57.76 41.14L57.76 41.14L56.72 41.14L56.72 37.11L57.40 37.11Q58.70 37.11 59.22 36.55Q59.74 36.00 59.74 34.91L59.74 34.91ZM62.32 12.40L62.32 12.40Q61.16 12.40 60.34 11.63Q59.52 10.86 59.52 9.77L59.52 9.77Q59.52 8.67 60.34 7.90Q61.16 7.13 62.32 7.13L62.32 7.13Q63.48 7.13 64.31 7.90Q65.14 8.66 65.14 9.77L65.14 9.77Q65.14 10.86 64.31 11.63Q63.48 12.40 62.32 12.40ZM75.60 34.38L75.60 34.38Q72.68 34.38 70.56 33.18Q68.44 31.98 67.30 29.78Q66.17 27.57 66.17 24.55L66.17 24.55Q66.17 21.59 67.29 19.37Q68.42 17.15 70.49 15.90Q72.56 14.65 75.34 14.65L75.34 14.65Q77.22 14.65 78.85 15.25Q80.47 15.85 81.70 17.06Q82.93 18.26 83.62 20.07Q84.31 21.88 84.31 24.34L84.31 24.34L84.31 25.78L68.27 25.78L68.27 22.57L81.80 22.57L79.41 23.42Q79.41 21.93 78.96 20.83Q78.50 19.73 77.61 19.12Q76.71 18.52 75.38 18.52L75.38 18.52Q74.06 18.52 73.13 19.13Q72.20 19.75 71.72 20.80Q71.24 21.85 71.24 23.20L71.24 23.20L71.24 25.47Q71.24 27.13 71.80 28.26Q72.35 29.39 73.35 29.95Q74.35 30.51 75.68 30.51L75.68 30.51Q76.59 30.51 77.32 30.26Q78.06 30.00 78.58 29.50Q79.10 28.99 79.38 28.26L79.38 28.26L84.02 29.13Q83.56 30.70 82.42 31.89Q81.27 33.08 79.56 33.73Q77.84 34.38 75.60 34.38ZM94.09 34.38L94.09 34.38Q91.20 34.38 89.11 33.14Q87.01 31.90 85.88 29.68Q84.74 27.47 84.74 24.53L84.74 24.53Q84.74 21.56 85.88 19.35Q87.01 17.13 89.11 15.89Q91.20 14.65 94.09 14.65L94.09 14.65Q95.78 14.65 97.22 15.10Q98.65 15.54 99.76 16.36Q100.87 17.18 101.59 18.36Q102.31 19.54 102.58 21.01L102.58 21.01L97.81 21.90Q97.66 21.15 97.33 20.56Q97.01 19.97 96.55 19.55Q96.09 19.13 95.48 18.91Q94.87 18.69 94.14 18.69L94.14 18.69Q92.77 18.69 91.84 19.42Q90.91 20.16 90.44 21.47Q89.97 22.79 89.97 24.52L89.97 24.52Q89.97 26.22 90.44 27.53Q90.91 28.84 91.84 29.59Q92.77 30.34 94.14 30.34L94.14 30.34Q94.87 30.34 95.49 30.11Q96.10 29.88 96.58 29.45Q97.06 29.01 97.39 28.39Q97.71 27.78 97.85 27.01L97.85 27.01L102.62 27.88Q102.34 29.40 101.62 30.59Q100.91 31.78 99.80 32.63Q98.69 33.49 97.24 33.93Q95.80 34.38 94.09 34.38ZM102.02 14.89L113.35 14.89L113.35 18.81L102.02 18.81L102.02 14.89ZM104.65 28.86L104.65 10.35L109.77 10.35L109.77 28.41Q109.77 29.32 110.18 29.75Q110.58 30.19 111.52 30.19L111.52 30.19Q111.81 30.19 112.34 30.11Q112.87 30.04 113.14 29.97L113.14 29.97L113.88 33.81Q113.02 34.07 112.18 34.17Q111.33 34.27 110.56 34.27L110.56 34.27Q107.69 34.27 106.17 32.87Q104.65 31.47 104.65 28.86L104.65 28.86ZM114.61 21.49L126.20 21.49L126.20 25.57L114.61 25.57L114.61 21.49ZM139.75 34.34L139.75 34.34Q136.36 34.34 133.69 32.80Q131.01 31.27 129.47 28.34Q127.92 25.42 127.92 21.29L127.92 21.29Q127.92 17.13 129.47 14.20Q131.03 11.27 133.71 9.73Q136.40 8.19 139.75 8.19L139.75 8.19Q141.92 8.19 143.79 8.80Q145.66 9.41 147.11 10.57Q148.56 11.73 149.49 13.42Q150.41 15.10 150.70 17.23L150.70 17.23L145.42 17.23Q145.25 16.19 144.76 15.38Q144.27 14.57 143.55 14.00Q142.82 13.42 141.88 13.12Q140.94 12.83 139.85 12.83L139.85 12.83Q137.87 12.83 136.36 13.82Q134.86 14.81 134.04 16.70Q133.22 18.58 133.22 21.29L133.22 21.29Q133.22 24.04 134.05 25.92Q134.89 27.80 136.38 28.75Q137.87 29.71 139.83 29.71L139.83 29.71Q140.92 29.71 141.86 29.41Q142.79 29.11 143.53 28.54Q144.27 27.97 144.76 27.15Q145.25 26.33 145.44 25.30L145.44 25.30L150.72 25.30Q150.51 27.06 149.67 28.69Q148.82 30.31 147.42 31.59Q146.02 32.87 144.09 33.61Q142.16 34.34 139.75 34.34ZM157.45 34.38L157.45 34.38Q155.64 34.38 154.19 33.74Q152.75 33.09 151.92 31.82Q151.09 30.55 151.09 28.65L151.09 28.65Q151.09 27.06 151.68 25.98Q152.27 24.91 153.29 24.26Q154.30 23.61 155.59 23.27Q156.88 22.93 158.30 22.79L158.30 22.79Q159.96 22.62 160.98 22.47Q161.99 22.33 162.46 22.01Q162.93 21.70 162.93 21.08L162.93 21.08L162.93 20.99Q162.93 20.17 162.59 19.61Q162.25 19.05 161.58 18.75Q160.92 18.45 159.94 18.45L159.94 18.45Q158.95 18.45 158.22 18.75Q157.48 19.05 157.02 19.54Q156.56 20.04 156.34 20.65L156.34 20.65L151.64 19.87Q152.13 18.21 153.28 17.05Q154.42 15.88 156.12 15.27Q157.82 14.65 159.94 14.65L159.94 14.65Q161.50 14.65 162.95 15.02Q164.40 15.39 165.56 16.16Q166.71 16.93 167.39 18.16Q168.06 19.39 168.06 21.13L168.06 21.13L168.06 34L163.21 34L163.21 31.35L163.04 31.35Q162.58 32.24 161.81 32.91Q161.04 33.59 159.95 33.98Q158.87 34.38 157.45 34.38ZM158.90 30.77L158.90 30.77Q160.11 30.77 161.03 30.29Q161.94 29.81 162.46 28.99Q162.97 28.17 162.97 27.16L162.97 27.16L162.97 25.10Q162.75 25.27 162.29 25.40Q161.82 25.54 161.26 25.64Q160.70 25.75 160.15 25.83Q159.60 25.92 159.17 25.97L159.17 25.97Q158.23 26.10 157.52 26.41Q156.80 26.72 156.41 27.22Q156.01 27.73 156.01 28.51L156.01 28.51Q156.01 29.25 156.39 29.75Q156.77 30.26 157.41 30.51Q158.05 30.77 158.90 30.77ZM175.29 34L170.16 34L170.16 14.89L174.91 14.89L175.17 19.64L174.79 19.64Q175.24 17.88 176.10 16.77Q176.96 15.66 178.13 15.13Q179.29 14.60 180.57 14.60L180.57 14.60Q182.64 14.60 183.90 15.91Q185.17 17.22 185.76 19.95L185.76 19.95L185.17 19.95Q185.59 18.12 186.56 16.94Q187.52 15.75 188.85 15.18Q190.17 14.60 191.63 14.60L191.63 14.60Q193.39 14.60 194.76 15.37Q196.14 16.14 196.93 17.59Q197.73 19.03 197.73 21.11L197.73 21.11L197.73 34L192.60 34L192.60 22.09Q192.60 20.46 191.72 19.68Q190.84 18.89 189.56 18.89L189.56 18.89Q188.60 18.89 187.89 19.31Q187.18 19.73 186.80 20.48Q186.41 21.23 186.41 22.24L186.41 22.24L186.41 34L181.46 34L181.46 21.95Q181.46 20.55 180.63 19.72Q179.80 18.89 178.48 18.89L178.48 18.89Q177.58 18.89 176.85 19.30Q176.13 19.71 175.71 20.51Q175.29 21.30 175.29 22.45L175.29 22.45L175.29 34ZM204.95 41.14L199.83 41.14L199.83 14.89L204.87 14.89L204.87 18.11L205.11 18.11Q205.47 17.35 206.13 16.55Q206.78 15.75 207.86 15.20Q208.94 14.65 210.56 14.65L210.56 14.65Q212.68 14.65 214.44 15.75Q216.20 16.84 217.25 19.03Q218.30 21.22 218.30 24.48L218.30 24.48Q218.30 27.66 217.28 29.86Q216.25 32.05 214.49 33.19Q212.73 34.32 210.53 34.32L210.53 34.32Q208.97 34.32 207.89 33.79Q206.82 33.27 206.14 32.49Q205.47 31.71 205.11 30.94L205.11 30.94L204.95 30.94L204.95 41.14ZM208.95 30.21L208.95 30.21Q210.29 30.21 211.20 29.47Q212.12 28.74 212.59 27.44Q213.06 26.14 213.06 24.46L213.06 24.46Q213.06 22.79 212.59 21.51Q212.12 20.23 211.21 19.49Q210.30 18.76 208.95 18.76L208.95 18.76Q207.64 18.76 206.71 19.47Q205.79 20.17 205.31 21.45Q204.83 22.72 204.83 24.46L204.83 24.46Q204.83 26.19 205.32 27.48Q205.81 28.77 206.73 29.49Q207.65 30.21 208.95 30.21Z" fill="#deddda"></path></g>
        
      </svg>